<?xml version="1.0" standalone="no"?>
<!DOCTYPE svg PUBLIC "-//W3C//DTD SVG 20010904//EN"
 "http://www.w3.org/TR/2001/REC-SVG-20010904/DTD/svg10.dtd">
<svg version="1.0" xmlns="http://www.w3.org/2000/svg"
 width="4096.000000pt" height="4096.000000pt" viewBox="0 0 4096.000000 4096.000000"
 preserveAspectRatio="xMidYMid meet">

<g transform="translate(0.000000,4096.000000) scale(0.100000,-0.100000)"
fill="#000000" stroke="none">
<path d="M5241 39058 c-5 -13 -590 -1457 -1300 -3210 l-1291 -3188 0 -12995 0
-12995 4470 0 4470 0 0 -2395 0 -2395 2518 1 2517 0 2270 2394 2270 2394 3695
1 3695 0 4878 4878 4877 4877 0 11328 0 11327 -16530 0 -16530 0 -9 -22z
m29719 -12122 l0 -8804 -2801 -2771 -2801 -2771 -4438 0 -4438 0 -2383 -2465
c-1311 -1356 -2387 -2465 -2391 -2465 -5 0 -8 1109 -8 2465 l0 2465 -3560 0
-3560 0 0 11575 0 11575 13190 0 13190 0 0 -8804z"/>
<path d="M17360 24610 l0 -4930 1560 0 1560 0 0 4930 0 4930 -1560 0 -1560 0
0 -4930z"/>
<path d="M26130 24610 l0 -4930 1560 0 1560 0 0 4930 0 4930 -1560 0 -1560 0
0 -4930z"/>
</g>
</svg>
